<svg data-v-423bf9ae="" xmlns="http://www.w3.org/2000/svg" viewBox="0 0 583.1358273043363 163" class="iconAbove"><!----><!----><!----><g data-v-423bf9ae="" id="d948201f-57c2-41b9-a138-fbf7e81f9a45" fill="black" transform="matrix(5.736138169368197,0,0,5.736138169368197,-5.449325217029582,87.1108969034211)"><path d="M1.30 13.09L1.30 13.09Q1.16 13.09 1.06 12.98L1.06 12.98L1.06 12.98Q0.95 12.88 0.95 12.74L0.95 12.74L0.95 3.65L0.95 3.65Q0.95 3.50 1.05 3.39L1.05 3.39L1.05 3.39Q1.15 3.29 1.30 3.29L1.30 3.29L3.18 3.29L3.18 3.29Q3.33 3.29 3.43 3.39L3.43 3.39L3.43 3.39Q3.53 3.50 3.53 3.65L3.53 3.65L3.53 6.71L6.01 3.57L6.01 3.57Q6.16 3.29 6.55 3.29L6.55 3.29L8.69 3.29L8.69 3.29Q8.81 3.29 8.90 3.38L8.90 3.38L8.90 3.38Q8.99 3.47 8.99 3.58L8.99 3.58L8.99 3.58Q8.99 3.70 8.93 3.75L8.93 3.75L5.67 7.98L9.20 12.63L9.20 12.63Q9.25 12.68 9.25 12.80L9.25 12.80L9.25 12.80Q9.25 12.91 9.16 13.00L9.16 13.00L9.16 13.00Q9.07 13.09 8.95 13.09L8.95 13.09L6.75 13.09L6.75 13.09Q6.52 13.09 6.38 13.00L6.38 13.00L6.38 13.00Q6.24 12.91 6.19 12.81L6.19 12.81L3.53 9.39L3.53 12.74L3.53 12.74Q3.53 12.88 3.43 12.98L3.43 12.98L3.43 12.98Q3.33 13.09 3.18 13.09L3.18 13.09L1.30 13.09ZM10.50 4.80L10.50 4.80Q10.35 4.80 10.25 4.70L10.25 4.70L10.25 4.70Q10.15 4.59 10.15 4.44L10.15 4.44L10.15 3.14L10.15 3.14Q10.15 2.98 10.26 2.88L10.26 2.88L10.26 2.88Q10.36 2.77 10.50 2.77L10.50 2.77L12.25 2.77L12.25 2.77Q12.40 2.77 12.51 2.88L12.51 2.88L12.51 2.88Q12.61 2.98 12.61 3.14L12.61 3.14L12.61 4.44L12.61 4.44Q12.61 4.59 12.51 4.70L12.51 4.70L12.51 4.70Q12.40 4.80 12.25 4.80L12.25 4.80L10.50 4.80ZM10.50 13.09L10.50 13.09Q10.36 13.09 10.26 12.98L10.26 12.98L10.26 12.98Q10.15 12.88 10.15 12.74L10.15 12.74L10.15 6.16L10.15 6.16Q10.15 6.01 10.26 5.91L10.26 5.91L10.26 5.91Q10.36 5.81 10.50 5.81L10.50 5.81L12.25 5.81L12.25 5.81Q12.40 5.81 12.51 5.91L12.51 5.91L12.51 5.91Q12.61 6.01 12.61 6.16L12.61 6.16L12.61 12.74L12.61 12.74Q12.61 12.89 12.51 12.99L12.51 12.99L12.51 12.99Q12.40 13.09 12.25 13.09L12.25 13.09L10.50 13.09ZM14.56 13.09L14.56 13.09Q14.42 13.09 14.32 12.98L14.32 12.98L14.32 12.98Q14.21 12.88 14.21 12.74L14.21 12.74L14.21 6.17L14.21 6.17Q14.21 6.02 14.31 5.92L14.31 5.92L14.31 5.92Q14.41 5.81 14.56 5.81L14.56 5.81L16.27 5.81L16.27 5.81Q16.42 5.81 16.53 5.92L16.53 5.92L16.53 5.92Q16.63 6.02 16.63 6.17L16.63 6.17L16.63 6.71L16.63 6.71Q17.02 6.27 17.55 6.04L17.55 6.04L17.55 6.04Q18.07 5.81 18.72 5.81L18.72 5.81L19.35 5.81L19.35 5.81Q19.50 5.81 19.60 5.91L19.60 5.91L19.60 5.91Q19.70 6.01 19.70 6.16L19.70 6.16L19.70 7.69L19.70 7.69Q19.70 7.83 19.60 7.93L19.60 7.93L19.60 7.93Q19.50 8.04 19.35 8.04L19.35 8.04L17.93 8.04L17.93 8.04Q17.37 8.04 17.07 8.34L17.07 8.34L17.07 8.34Q16.77 8.65 16.77 9.21L16.77 9.21L16.77 12.74L16.77 12.74Q16.77 12.89 16.67 12.99L16.67 12.99L16.67 12.99Q16.56 13.09 16.41 13.09L16.41 13.09L14.56 13.09ZM21.01 4.80L21.01 4.80Q20.86 4.80 20.76 4.70L20.76 4.70L20.76 4.70Q20.66 4.59 20.66 4.44L20.66 4.44L20.66 3.14L20.66 3.14Q20.66 2.98 20.77 2.88L20.77 2.88L20.77 2.88Q20.87 2.77 21.01 2.77L21.01 2.77L22.76 2.77L22.76 2.77Q22.92 2.77 23.02 2.88L23.02 2.88L23.02 2.88Q23.13 2.98 23.13 3.14L23.13 3.14L23.13 4.44L23.13 4.44Q23.13 4.59 23.02 4.70L23.02 4.70L23.02 4.70Q22.92 4.80 22.76 4.80L22.76 4.80L21.01 4.80ZM21.01 13.09L21.01 13.09Q20.87 13.09 20.77 12.98L20.77 12.98L20.77 12.98Q20.66 12.88 20.66 12.74L20.66 12.74L20.66 6.16L20.66 6.16Q20.66 6.01 20.77 5.91L20.77 5.91L20.77 5.91Q20.87 5.81 21.01 5.81L21.01 5.81L22.76 5.81L22.76 5.81Q22.92 5.81 23.02 5.91L23.02 5.91L23.02 5.91Q23.13 6.01 23.13 6.16L23.13 6.16L23.13 12.74L23.13 12.74Q23.13 12.89 23.02 12.99L23.02 12.99L23.02 12.99Q22.92 13.09 22.76 13.09L22.76 13.09L21.01 13.09ZM25.09 13.09L25.09 13.09Q24.93 13.09 24.83 12.99L24.83 12.99L24.83 12.99Q24.72 12.89 24.72 12.74L24.72 12.74L24.72 3.50L24.72 3.50Q24.72 3.35 24.83 3.25L24.83 3.25L24.83 3.25Q24.93 3.15 25.09 3.15L25.09 3.15L26.84 3.15L26.84 3.15Q26.99 3.15 27.09 3.25L27.09 3.25L27.09 3.25Q27.19 3.35 27.19 3.50L27.19 3.50L27.19 12.74L27.19 12.74Q27.19 12.88 27.09 12.98L27.09 12.98L27.09 12.98Q26.99 13.09 26.84 13.09L26.84 13.09L25.09 13.09ZM32.28 13.23L32.28 13.23Q30.52 13.23 29.58 12.41L29.58 12.41L29.58 12.41Q28.63 11.59 28.55 10.08L28.55 10.08L28.55 10.08Q28.53 9.90 28.53 9.45L28.53 9.45L28.53 9.45Q28.53 9.00 28.55 8.82L28.55 8.82L28.55 8.82Q28.63 7.34 29.60 6.50L29.60 6.50L29.60 6.50Q30.58 5.67 32.28 5.67L32.28 5.67L32.28 5.67Q33.99 5.67 34.97 6.50L34.97 6.50L34.97 6.50Q35.94 7.34 36.02 8.82L36.02 8.82L36.02 8.82Q36.05 9.18 36.05 9.45L36.05 9.45L36.05 9.45Q36.05 9.72 36.02 10.08L36.02 10.08L36.02 10.08Q35.94 11.59 34.99 12.41L34.99 12.41L34.99 12.41Q34.05 13.23 32.28 13.23L32.28 13.23ZM32.28 11.47L32.28 11.47Q32.86 11.47 33.14 11.11L33.14 11.11L33.14 11.11Q33.42 10.75 33.46 10.01L33.46 10.01L33.46 10.01Q33.47 9.87 33.47 9.45L33.47 9.45L33.47 9.45Q33.47 9.03 33.46 8.89L33.46 8.89L33.46 8.89Q33.42 8.16 33.14 7.80L33.14 7.80L33.14 7.80Q32.86 7.43 32.28 7.43L32.28 7.43L32.28 7.43Q31.71 7.43 31.43 7.80L31.43 7.80L31.43 7.80Q31.15 8.16 31.11 8.89L31.11 8.89L31.09 9.45L31.11 10.01L31.11 10.01Q31.15 10.75 31.43 11.11L31.43 11.11L31.43 11.11Q31.71 11.47 32.28 11.47L32.28 11.47ZM39.98 13.09L39.98 13.09Q39.79 13.09 39.68 13.00L39.68 13.00L39.68 13.00Q39.58 12.91 39.51 12.74L39.51 12.74L36.85 6.24L36.85 6.24Q36.83 6.20 36.83 6.13L36.83 6.13L36.83 6.13Q36.83 5.99 36.93 5.90L36.93 5.90L36.93 5.90Q37.02 5.81 37.16 5.81L37.16 5.81L38.82 5.81L38.82 5.81Q39.12 5.81 39.24 6.10L39.24 6.10L40.77 10.29L42.31 6.10L42.31 6.10Q42.35 5.99 42.45 5.90L42.45 5.90L42.45 5.90Q42.55 5.81 42.71 5.81L42.71 5.81L44.39 5.81L44.39 5.81Q44.52 5.81 44.62 5.90L44.62 5.90L44.62 5.90Q44.72 5.99 44.72 6.13L44.72 6.13L44.69 6.24L42.04 12.74L42.04 12.74Q41.97 12.91 41.86 13.00L41.86 13.00L41.86 13.00Q41.75 13.09 41.55 13.09L41.55 13.09L39.98 13.09ZM52.92 13.23L52.92 13.23Q50.92 13.23 49.78 12.26L49.78 12.26L49.78 12.26Q48.64 11.30 48.57 9.44L48.57 9.44L48.57 9.44Q48.55 9.06 48.55 8.20L48.55 8.20L48.55 8.20Q48.55 7.34 48.57 6.94L48.57 6.94L48.57 6.94Q48.64 5.12 49.79 4.14L49.79 4.14L49.79 4.14Q50.95 3.15 52.92 3.15L52.92 3.15L52.92 3.15Q54.17 3.15 55.15 3.56L55.15 3.56L55.15 3.56Q56.14 3.96 56.71 4.73L56.71 4.73L56.71 4.73Q57.29 5.50 57.32 6.55L57.32 6.55L57.32 6.55Q57.32 6.68 57.23 6.76L57.23 6.76L57.23 6.76Q57.13 6.85 57.01 6.85L57.01 6.85L55.02 6.85L55.02 6.85Q54.82 6.85 54.73 6.77L54.73 6.77L54.73 6.77Q54.64 6.69 54.57 6.48L54.57 6.48L54.57 6.48Q54.38 5.80 53.98 5.52L53.98 5.52L53.98 5.52Q53.58 5.25 52.92 5.25L52.92 5.25L52.92 5.25Q51.34 5.25 51.28 7.01L51.28 7.01L51.28 7.01Q51.27 7.39 51.27 8.18L51.27 8.18L51.27 8.18Q51.27 8.96 51.28 9.37L51.28 9.37L51.28 9.37Q51.34 11.13 52.92 11.13L52.92 11.13L52.92 11.13Q53.56 11.13 53.98 10.85L53.98 10.85L53.98 10.85Q54.39 10.57 54.57 9.90L54.57 9.90L54.57 9.90Q54.63 9.69 54.73 9.61L54.73 9.61L54.73 9.61Q54.82 9.53 55.02 9.53L55.02 9.53L57.01 9.53L57.01 9.53Q57.13 9.53 57.23 9.62L57.23 9.62L57.23 9.62Q57.32 9.70 57.32 9.83L57.32 9.83L57.32 9.83Q57.29 10.88 56.71 11.65L56.71 11.65L56.71 11.65Q56.14 12.42 55.15 12.82L55.15 12.82L55.15 12.82Q54.17 13.23 52.92 13.23L52.92 13.23ZM62.09 13.23L62.09 13.23Q60.33 13.23 59.38 12.41L59.38 12.41L59.38 12.41Q58.44 11.59 58.35 10.08L58.35 10.08L58.35 10.08Q58.34 9.90 58.34 9.45L58.34 9.45L58.34 9.45Q58.34 9.00 58.35 8.82L58.35 8.82L58.35 8.82Q58.44 7.34 59.41 6.50L59.41 6.50L59.41 6.50Q60.38 5.67 62.09 5.67L62.09 5.67L62.09 5.67Q63.80 5.67 64.77 6.50L64.77 6.50L64.77 6.50Q65.74 7.34 65.83 8.82L65.83 8.82L65.83 8.82Q65.86 9.18 65.86 9.45L65.86 9.45L65.86 9.45Q65.86 9.72 65.83 10.08L65.83 10.08L65.83 10.08Q65.74 11.59 64.80 12.41L64.80 12.41L64.80 12.41Q63.85 13.23 62.09 13.23L62.09 13.23ZM62.09 11.47L62.09 11.47Q62.66 11.47 62.94 11.11L62.94 11.11L62.94 11.11Q63.22 10.75 63.27 10.01L63.27 10.01L63.27 10.01Q63.28 9.87 63.28 9.45L63.28 9.45L63.28 9.45Q63.28 9.03 63.27 8.89L63.27 8.89L63.27 8.89Q63.22 8.16 62.94 7.80L62.94 7.80L62.94 7.80Q62.66 7.43 62.09 7.43L62.09 7.43L62.09 7.43Q61.52 7.43 61.24 7.80L61.24 7.80L61.24 7.80Q60.96 8.16 60.91 8.89L60.91 8.89L60.90 9.45L60.91 10.01L60.91 10.01Q60.96 10.75 61.24 11.11L61.24 11.11L61.24 11.11Q61.52 11.47 62.09 11.47L62.09 11.47ZM67.54 13.09L67.54 13.09Q67.40 13.09 67.29 12.98L67.29 12.98L67.29 12.98Q67.19 12.88 67.19 12.74L67.19 12.74L67.19 6.16L67.19 6.16Q67.19 6.01 67.29 5.91L67.29 5.91L67.29 5.91Q67.40 5.81 67.54 5.81L67.54 5.81L69.26 5.81L69.26 5.81Q69.41 5.81 69.51 5.91L69.51 5.91L69.51 5.91Q69.61 6.01 69.61 6.16L69.61 6.16L69.61 6.69L69.61 6.69Q69.99 6.23 70.58 5.95L70.58 5.95L70.58 5.95Q71.18 5.67 71.95 5.67L71.95 5.67L71.95 5.67Q72.74 5.67 73.37 6.03L73.37 6.03L73.37 6.03Q73.99 6.40 74.35 7.11L74.35 7.11L74.35 7.11Q74.70 7.83 74.70 8.83L74.70 8.83L74.70 12.74L74.70 12.74Q74.70 12.88 74.61 12.98L74.61 12.98L74.61 12.98Q74.51 13.09 74.35 13.09L74.35 13.09L72.49 13.09L72.49 13.09Q72.34 13.09 72.23 12.99L72.23 12.99L72.23 12.99Q72.13 12.89 72.13 12.74L72.13 12.74L72.13 8.92L72.13 8.92Q72.13 8.29 71.83 7.95L71.83 7.95L71.83 7.95Q71.53 7.62 70.95 7.62L70.95 7.62L70.95 7.62Q70.39 7.62 70.07 7.96L70.07 7.96L70.07 7.96Q69.75 8.30 69.75 8.92L69.75 8.92L69.75 12.74L69.75 12.74Q69.75 12.88 69.65 12.98L69.65 12.98L69.65 12.98Q69.55 13.09 69.40 13.09L69.40 13.09L67.54 13.09ZM79.28 13.23L79.28 13.23Q78.13 13.23 77.36 12.91L77.36 12.91L77.36 12.91Q76.59 12.59 76.22 12.14L76.22 12.14L76.22 12.14Q75.85 11.69 75.85 11.33L75.85 11.33L75.85 11.33Q75.85 11.19 75.96 11.09L75.96 11.09L75.96 11.09Q76.06 11.00 76.19 11.00L76.19 11.00L77.88 11.00L77.88 11.00Q77.97 11.00 78.02 11.06L78.02 11.06L78.02 11.06Q78.26 11.21 78.29 11.24L78.29 11.24L78.29 11.24Q78.55 11.44 78.78 11.54L78.78 11.54L78.78 11.54Q79.02 11.65 79.34 11.65L79.34 11.65L79.34 11.65Q79.72 11.65 79.96 11.50L79.96 11.50L79.96 11.50Q80.21 11.35 80.21 11.09L80.21 11.09L80.21 11.09Q80.21 10.86 80.07 10.72L80.07 10.72L80.07 10.72Q79.94 10.58 79.57 10.45L79.57 10.45L79.57 10.45Q79.20 10.32 78.44 10.18L78.44 10.18L78.44 10.18Q76.02 9.69 76.02 7.94L76.02 7.94L76.02 7.94Q76.02 7.36 76.39 6.84L76.39 6.84L76.39 6.84Q76.76 6.31 77.48 5.99L77.48 5.99L77.48 5.99Q78.20 5.67 79.21 5.67L79.21 5.67L79.21 5.67Q80.23 5.67 80.98 5.98L80.98 5.98L80.98 5.98Q81.73 6.30 82.12 6.74L82.12 6.74L82.12 6.74Q82.52 7.18 82.52 7.55L82.52 7.55L82.52 7.55Q82.52 7.67 82.42 7.77L82.42 7.77L82.42 7.77Q82.33 7.87 82.21 7.87L82.21 7.87L80.67 7.87L80.67 7.87Q80.54 7.87 80.47 7.81L80.47 7.81L80.47 7.81Q80.30 7.73 80.14 7.60L80.14 7.60L80.14 7.60Q79.88 7.43 79.70 7.34L79.70 7.34L79.70 7.34Q79.51 7.25 79.21 7.25L79.21 7.25L79.21 7.25Q78.86 7.25 78.67 7.41L78.67 7.41L78.67 7.41Q78.47 7.56 78.47 7.80L78.47 7.80L78.47 7.80Q78.47 8.01 78.59 8.14L78.59 8.14L78.59 8.14Q78.71 8.27 79.08 8.40L79.08 8.40L79.08 8.40Q79.45 8.53 80.21 8.67L80.21 8.67L80.21 8.67Q81.58 8.90 82.20 9.51L82.20 9.51L82.20 9.51Q82.82 10.12 82.82 10.93L82.82 10.93L82.82 10.93Q82.82 11.98 81.89 12.61L81.89 12.61L81.89 12.61Q80.96 13.23 79.28 13.23L79.28 13.23ZM86.70 13.23L86.70 13.23Q85.47 13.23 84.71 12.40L84.71 12.40L84.71 12.40Q83.96 11.58 83.96 10.07L83.96 10.07L83.96 6.16L83.96 6.16Q83.96 6.01 84.06 5.91L84.06 5.91L84.06 5.91Q84.17 5.81 84.31 5.81L84.31 5.81L86.17 5.81L86.17 5.81Q86.32 5.81 86.43 5.91L86.43 5.91L86.43 5.91Q86.53 6.01 86.53 6.16L86.53 6.16L86.53 9.98L86.53 9.98Q86.53 11.28 87.70 11.28L87.70 11.28L87.70 11.28Q88.26 11.28 88.57 10.94L88.57 10.94L88.57 10.94Q88.89 10.60 88.89 9.98L88.89 9.98L88.89 6.16L88.89 6.16Q88.89 6.01 88.99 5.91L88.99 5.91L88.99 5.91Q89.10 5.81 89.25 5.81L89.25 5.81L91.10 5.81L91.10 5.81Q91.25 5.81 91.35 5.91L91.35 5.91L91.35 5.91Q91.45 6.01 91.45 6.16L91.45 6.16L91.45 12.74L91.45 12.74Q91.45 12.88 91.35 12.98L91.35 12.98L91.35 12.98Q91.25 13.09 91.10 13.09L91.10 13.09L89.39 13.09L89.39 13.09Q89.24 13.09 89.13 12.99L89.13 12.99L89.13 12.99Q89.03 12.89 89.03 12.74L89.03 12.74L89.03 12.21L89.03 12.21Q88.30 13.23 86.70 13.23L86.70 13.23ZM93.41 13.09L93.41 13.09Q93.25 13.09 93.15 12.99L93.15 12.99L93.15 12.99Q93.04 12.89 93.04 12.74L93.04 12.74L93.04 3.50L93.04 3.50Q93.04 3.35 93.15 3.25L93.15 3.25L93.15 3.25Q93.25 3.15 93.41 3.15L93.41 3.15L95.16 3.15L95.16 3.15Q95.31 3.15 95.41 3.25L95.41 3.25L95.41 3.25Q95.51 3.35 95.51 3.50L95.51 3.50L95.51 12.74L95.51 12.74Q95.51 12.88 95.41 12.98L95.41 12.98L95.41 12.98Q95.31 13.09 95.16 13.09L95.16 13.09L93.41 13.09ZM100.93 13.09L100.93 13.09Q97.96 13.09 97.96 10.30L97.96 10.30L97.96 7.71L96.85 7.71L96.85 7.71Q96.71 7.71 96.61 7.61L96.61 7.61L96.61 7.61Q96.50 7.50 96.50 7.36L96.50 7.36L96.50 6.16L96.50 6.16Q96.50 6.01 96.61 5.91L96.61 5.91L96.61 5.91Q96.71 5.81 96.85 5.81L96.85 5.81L97.96 5.81L97.96 3.50L97.96 3.50Q97.96 3.35 98.06 3.25L98.06 3.25L98.06 3.25Q98.17 3.15 98.31 3.15L98.31 3.15L100.03 3.15L100.03 3.15Q100.18 3.15 100.28 3.25L100.28 3.25L100.28 3.25Q100.38 3.35 100.38 3.50L100.38 3.50L100.38 5.81L102.13 5.81L102.13 5.81Q102.28 5.81 102.39 5.91L102.39 5.91L102.39 5.91Q102.49 6.01 102.49 6.16L102.49 6.16L102.49 7.36L102.49 7.36Q102.49 7.52 102.39 7.62L102.39 7.62L102.39 7.62Q102.28 7.71 102.13 7.71L102.13 7.71L100.38 7.71L100.38 10.09L100.38 10.09Q100.38 10.58 100.56 10.84L100.56 10.84L100.56 10.84Q100.74 11.09 101.15 11.09L101.15 11.09L102.26 11.09L102.26 11.09Q102.41 11.09 102.51 11.19L102.51 11.19L102.51 11.19Q102.61 11.30 102.61 11.45L102.61 11.45L102.61 12.74L102.61 12.74Q102.61 12.88 102.51 12.98L102.51 12.98L102.51 12.98Q102.41 13.09 102.26 13.09L102.26 13.09L100.93 13.09Z"></path></g><!----><g data-v-423bf9ae="" id="653049cb-7cca-4a2c-bb2d-68c0003b1df4" transform="matrix(2.0930230701337353,0,0,2.0930230701337353,187.11455532654594,-59.151153329259344)" stroke="none" fill="black"><path d="M89.95 65.2c-4.061 4.06-9.46 6.3-15.2 6.3s-11.14-2.24-15.2-6.3l-6.72-6.72 5.65-5.65 6.72 6.72a13.408 13.408 0 0 0 9.55 3.95c3.6 0 6.99-1.4 9.54-3.95 5.27-5.27 5.27-13.83 0-19.1a13.404 13.404 0 0 0-9.54-3.95c-3.61 0-7 1.4-9.55 3.95l-6.72 6.72L55.66 50 50 55.66l-2.83 2.82-6.72 6.72c-4.06 4.06-9.46 6.3-15.2 6.3s-11.14-2.24-15.2-6.3c-4.06-4.061-6.3-9.46-6.3-15.2s2.24-11.14 6.3-15.2c4.06-4.06 9.46-6.3 15.2-6.3s11.14 2.24 15.2 6.3l6.72 6.72-5.65 5.65-6.72-6.72a13.41 13.41 0 0 0-9.55-3.95c-3.6 0-6.99 1.4-9.54 3.95A13.412 13.412 0 0 0 11.75 50c0 3.6 1.4 7 3.96 9.54 2.55 2.56 5.94 3.96 9.54 3.96 3.61 0 7-1.4 9.55-3.95l6.72-6.72L44.34 50 50 44.34l2.83-2.82 6.72-6.72c4.061-4.06 9.46-6.3 15.2-6.3s11.14 2.24 15.2 6.3c8.38 8.38 8.38 22.02 0 30.4z"></path></g><!----></svg>